# xmcd
#
# Track frame offsets: 
#        150
#        12805
#        23487
#        34725
#        46140
#        56593
#        68854
#        83008
#        96858
#        111061
#        121416
#        133906
#        155007
#        171733
#        185573
#
# Disc length: 2633 seconds
#
# Revision: 4
# Processed by: cddbd v1.5.2PL0 Copyright (c) Steve Scherf et al.
# Submitted via: ExactAudioCopy v0.99pb5
#
DISCID=c70a470f
DTITLE=Johnny Winter - Texas Blues [CD 1)
DYEAR=1900
DGENRE=
TTITLE0=Livin' In The Blues
TTITLE1=Creepy
TTITLE2=Gangster Of Love
TTITLE3=The Guy You Left Behind
TTITLE4=Out Of Sight
TTITLE5=Parchman Farm
TTITLE6=Low Down Gal Of Mine
TTITLE7=Five After Four AM
TTITLE8=Ease My Pain
TTITLE9=32-20 Blues
TTITLE10=Bad News
TTITLE11=Goin' Down Slow
TTITLE12=Kindhearted Woman Blues
TTITLE13=Harlem Nocturne
TTITLE14=Livin' In The Blues (2)
EXTD=
EXTT0=
EXTT1=
EXTT2=
EXTT3=
EXTT4=
EXTT5=
EXTT6=
EXTT7=
EXTT8=
EXTT9=
EXTT10=
EXTT11=
EXTT12=
EXTT13=
EXTT14=
PLAYORDER=
